<svg id="Layer_1" data-name="Layer 1" xmlns="http://www.w3.org/2000/svg" viewBox="0 0 2154.33 2040.94"><defs><style>.cls-1{fill:#fff;}.cls-2{fill:none;}</style></defs><path class="cls-1" d="M566.93,1819.17a2.5,2.5,0,0,1-2.5-2.5V1703.29a2.49,2.49,0,0,1,2.5-2.5H680.32a2.5,2.5,0,0,1,1.76,4.26L568.7,1818.44A2.5,2.5,0,0,1,566.93,1819.17Zm2.5-113.38v104.85l104.85-104.85Z"/><path class="cls-1" d="M680.32,1819.17H566.93a2.5,2.5,0,0,1-1.77-4.27l113.39-113.38a2.5,2.5,0,0,1,4.27,1.76v113.39A2.5,2.5,0,0,1,680.32,1819.17Zm-107.35-5H677.82V1709.32Z"/><path class="cls-1" d="M680.32,1705.79H566.93a2.5,2.5,0,0,1-1.77-4.27l113.39-113.38a2.5,2.5,0,0,1,4.27,1.76v113.39A2.5,2.5,0,0,1,680.32,1705.79Zm-107.35-5H677.82V1595.94Z"/><path class="cls-1" d="M680.31,1479a2.46,2.46,0,0,1-1.76-.73L565.16,1364.9a2.5,2.5,0,0,1,1.77-4.27H680.31a2.5,2.5,0,0,1,2.5,2.5v113.38a2.51,2.51,0,0,1-1.54,2.31A2.45,2.45,0,0,1,680.31,1479ZM573,1365.63l104.85,104.85V1365.63Z"/><path class="cls-1" d="M680.31,1479H566.93a2.5,2.5,0,0,1-2.5-2.5V1363.13a2.5,2.5,0,0,1,4.27-1.77l113.38,113.38a2.5,2.5,0,0,1-1.77,4.27Zm-110.88-5H674.28L569.43,1369.16Z"/><path class="cls-1" d="M680.31,1592.4H566.93a2.5,2.5,0,0,1-2.5-2.5V1476.52a2.5,2.5,0,0,1,4.27-1.77l113.38,113.38a2.5,2.5,0,0,1-1.77,4.27Zm-110.88-5H674.28L569.43,1482.55Z"/><path class="cls-1" d="M566.93,1705.78a2.5,2.5,0,0,1-2.5-2.5V1589.9a2.5,2.5,0,0,1,2.5-2.5H680.31a2.5,2.5,0,0,1,1.77,4.27L568.7,1705.05A2.5,2.5,0,0,1,566.93,1705.78Zm2.5-113.38v104.85L674.28,1592.4Z"/><path class="cls-1" d="M680.31,1592.4a2.54,2.54,0,0,1-1.77-.73L565.16,1478.28a2.5,2.5,0,0,1,1.77-4.27H680.31a2.5,2.5,0,0,1,2.5,2.5V1589.9a2.5,2.5,0,0,1-2.5,2.5ZM573,1479l104.85,104.85V1479Z"/><path class="cls-1" d="M907.09,1819.17a2.45,2.45,0,0,1-1-.19,2.5,2.5,0,0,1-1.54-2.31V1703.29a2.5,2.5,0,0,1,2.5-2.5h113.38a2.5,2.5,0,0,1,1.77,4.27L908.85,1818.44A2.46,2.46,0,0,1,907.09,1819.17Zm2.5-113.38v104.85l104.85-104.85Z"/><path class="cls-1" d="M1020.47,1819.17H907.09a2.5,2.5,0,0,1-1.77-4.27l113.38-113.38a2.5,2.5,0,0,1,4.27,1.77v113.38A2.5,2.5,0,0,1,1020.47,1819.17Zm-107.35-5H1018V1709.32Z"/><path class="cls-1" d="M1020.47,1705.79H907.09a2.5,2.5,0,0,1-1.77-4.27l113.38-113.38a2.5,2.5,0,0,1,4.27,1.76v113.39A2.5,2.5,0,0,1,1020.47,1705.79Zm-107.35-5H1018V1595.94Z"/><path class="cls-1" d="M1020.47,1479a2.5,2.5,0,0,1-1.77-.73L905.32,1364.9a2.5,2.5,0,0,1,1.76-4.27h113.39a2.5,2.5,0,0,1,2.5,2.5v113.38a2.5,2.5,0,0,1-2.5,2.5ZM913.12,1365.63,1018,1470.48V1365.63Z"/><path class="cls-1" d="M1020.47,1479H907.09a2.5,2.5,0,0,1-2.5-2.5V1363.13a2.5,2.5,0,0,1,4.26-1.77l113.39,113.39a2.5,2.5,0,0,1-1.77,4.26Zm-110.88-5h104.84L909.59,1369.17Z"/><path class="cls-1" d="M1133.86,1479a2.5,2.5,0,0,1-1.77-.73L1018.7,1364.9a2.5,2.5,0,0,1,1.77-4.27h113.39a2.5,2.5,0,0,1,2.5,2.5v113.38a2.49,2.49,0,0,1-1.55,2.31A2.44,2.44,0,0,1,1133.86,1479Zm-107.35-113.38,104.85,104.85V1365.63Z"/><path class="cls-1" d="M1133.86,1479H1020.47a2.5,2.5,0,0,1-2.5-2.5V1363.13a2.5,2.5,0,0,1,4.27-1.77l113.38,113.39a2.49,2.49,0,0,1-1.76,4.26ZM1023,1474h104.85L1023,1369.17Z"/><path class="cls-1" d="M907.08,1479a2.46,2.46,0,0,1-1.76-.73L791.93,1364.9a2.5,2.5,0,0,1,1.77-4.27H907.08a2.5,2.5,0,0,1,2.5,2.5v113.38a2.5,2.5,0,0,1-1.54,2.31A2.45,2.45,0,0,1,907.08,1479ZM799.74,1365.63l104.84,104.85V1365.63Z"/><path class="cls-1" d="M907.08,1479H793.7a2.5,2.5,0,0,1-2.5-2.5V1363.13a2.5,2.5,0,0,1,4.27-1.77l113.38,113.39a2.5,2.5,0,0,1-1.77,4.26Zm-110.88-5H901.05L796.2,1369.17Z"/><path class="cls-1" d="M1020.47,1592.4a2.5,2.5,0,0,1-1.77-.73L905.32,1478.28a2.5,2.5,0,0,1,1.76-4.26h113.39a2.5,2.5,0,0,1,2.5,2.5V1589.9a2.5,2.5,0,0,1-2.5,2.5ZM913.12,1479,1018,1583.87V1479Z"/><path class="cls-1" d="M1020.47,1592.4H907.09a2.5,2.5,0,0,1-2.5-2.5V1476.52a2.5,2.5,0,0,1,4.26-1.77l113.39,113.38a2.5,2.5,0,0,1-1.77,4.27Zm-110.88-5h104.84L909.59,1482.55Z"/><path class="cls-1" d="M907.09,1705.79a2.65,2.65,0,0,1-1-.19,2.51,2.51,0,0,1-1.54-2.31V1589.9a2.5,2.5,0,0,1,2.5-2.5h113.38a2.5,2.5,0,0,1,1.77,4.27L908.85,1705.05A2.47,2.47,0,0,1,907.09,1705.79Zm2.5-113.39v104.85l104.84-104.85Z"/><path class="cls-1" d="M340.16,1819.17a2.5,2.5,0,0,1-2.5-2.5V1703.29a2.49,2.49,0,0,1,2.5-2.5H453.54a2.5,2.5,0,0,1,1.77,4.26L341.93,1818.44A2.5,2.5,0,0,1,340.16,1819.17Zm2.5-113.38v104.85l104.85-104.85Z"/><path class="cls-1" d="M453.54,1819.17H340.16a2.5,2.5,0,0,1-1.77-4.27l113.39-113.38a2.49,2.49,0,0,1,4.26,1.76v113.39A2.5,2.5,0,0,1,453.54,1819.17Zm-107.35-5H451V1709.32Z"/><path class="cls-1" d="M340.16,1705.79H226.77a2.5,2.5,0,0,1-1.77-4.27l113.39-113.38a2.5,2.5,0,0,1,4.27,1.76v113.39A2.5,2.5,0,0,1,340.16,1705.79Zm-107.35-5H337.66V1595.94Z"/><path class="cls-1" d="M340.16,1479a2.48,2.48,0,0,1-1.77-.73L225,1364.9a2.5,2.5,0,0,1,1.77-4.27H340.16a2.5,2.5,0,0,1,2.5,2.5v113.38a2.5,2.5,0,0,1-1.55,2.31A2.44,2.44,0,0,1,340.16,1479ZM232.81,1365.63l104.85,104.85V1365.63Z"/><path class="cls-1" d="M340.16,1479H226.77a2.5,2.5,0,0,1-2.5-2.5V1363.13a2.5,2.5,0,0,1,4.27-1.77l113.38,113.38a2.5,2.5,0,0,1-1.76,4.27Zm-110.89-5H334.12L229.27,1369.16Z"/><path class="cls-1" d="M340.16,1819.17a2.48,2.48,0,0,1-1.77-.73L225,1705.06a2.5,2.5,0,0,1,1.77-4.27H340.16a2.5,2.5,0,0,1,2.5,2.5v113.38a2.49,2.49,0,0,1-1.55,2.31A2.44,2.44,0,0,1,340.16,1819.17ZM232.81,1705.79l104.85,104.85V1705.79Z"/><path class="cls-1" d="M340.16,1819.17H226.77a2.5,2.5,0,0,1-2.5-2.5V1703.29a2.5,2.5,0,0,1,4.27-1.77L341.92,1814.9a2.5,2.5,0,0,1-1.76,4.27Zm-110.89-5H334.12L229.27,1709.32Z"/><path class="cls-1" d="M340.16,1592.4a2.52,2.52,0,0,1-1.77-.73L225,1478.28a2.5,2.5,0,0,1,1.77-4.27H340.16a2.5,2.5,0,0,1,2.5,2.5V1589.9a2.5,2.5,0,0,1-1.55,2.31A2.44,2.44,0,0,1,340.16,1592.4ZM232.81,1479l104.85,104.85V1479Z"/><path class="cls-1" d="M340.16,1592.4H226.77a2.5,2.5,0,0,1-2.5-2.5V1476.51a2.5,2.5,0,0,1,4.27-1.76l113.38,113.38a2.5,2.5,0,0,1-1.76,4.27Zm-110.89-5H334.12L229.27,1482.55Z"/><path class="cls-1" d="M226.77,1705.78a2.41,2.41,0,0,1-1-.19,2.49,2.49,0,0,1-1.55-2.31V1589.9a2.5,2.5,0,0,1,2.5-2.5H340.16a2.5,2.5,0,0,1,1.76,4.27L228.54,1705.05A2.5,2.5,0,0,1,226.77,1705.78Zm2.5-113.38v104.85L334.12,1592.4Z"/><path class="cls-1" d="M1360.63,1705.79a2.5,2.5,0,0,1-2.5-2.5V1589.9a2.5,2.5,0,0,1,2.5-2.5H1474a2.5,2.5,0,0,1,1.77,4.27L1362.4,1705.06A2.5,2.5,0,0,1,1360.63,1705.79Zm2.5-113.39v104.85L1468,1592.4Z"/><path class="cls-1" d="M1360.63,1705.79a2.5,2.5,0,0,1-1.77-.73l-113.39-113.39a2.5,2.5,0,0,1,1.77-4.27h113.39a2.5,2.5,0,0,1,2.5,2.5v113.39a2.5,2.5,0,0,1-1.55,2.31A2.44,2.44,0,0,1,1360.63,1705.79ZM1253.28,1592.4l104.85,104.85V1592.4Z"/><path class="cls-1" d="M1360.63,1819.17a2.48,2.48,0,0,1-1.77-.73l-113.39-113.38a2.5,2.5,0,0,1,1.77-4.27h113.38a2.49,2.49,0,0,1,2.5,2.5v113.38a2.48,2.48,0,0,1-1.54,2.31A2.44,2.44,0,0,1,1360.63,1819.17Zm-107.35-113.38,104.84,104.85V1705.79Z"/><path class="cls-1" d="M1360.63,1819.17H1247.24a2.5,2.5,0,0,1-2.5-2.5V1703.29a2.5,2.5,0,0,1,4.27-1.77l113.38,113.38a2.5,2.5,0,0,1-1.76,4.27Zm-110.89-5h104.85l-104.85-104.85Z"/><path class="cls-1" d="M1360.62,1705.79H1247.24a2.5,2.5,0,0,1-2.5-2.5V1589.9a2.5,2.5,0,0,1,4.27-1.76l113.38,113.38a2.5,2.5,0,0,1-1.77,4.27Zm-110.88-5h104.85l-104.85-104.85Z"/><path class="cls-1" d="M1360.63,1479a2.69,2.69,0,0,1-1-.19,2.51,2.51,0,0,1-1.54-2.31V1363.13a2.5,2.5,0,0,1,2.5-2.5H1474a2.5,2.5,0,0,1,1.77,4.27L1362.4,1478.28A2.51,2.51,0,0,1,1360.63,1479Zm2.5-113.39v104.85L1468,1365.63Z"/><path class="cls-1" d="M1474,1479H1360.63a2.5,2.5,0,0,1-1.77-4.26l113.39-113.39a2.5,2.5,0,0,1,4.26,1.77v113.38A2.5,2.5,0,0,1,1474,1479Zm-107.35-5h104.85V1369.17Z"/><path class="cls-1" d="M1247.24,1592.4a2.5,2.5,0,0,1-2.5-2.5V1476.51a2.5,2.5,0,0,1,2.5-2.5h113.39a2.5,2.5,0,0,1,1.76,4.27L1249,1591.67A2.54,2.54,0,0,1,1247.24,1592.4Zm2.5-113.39v104.85L1354.59,1479Z"/><path class="cls-1" d="M1360.62,1479H1247.24a2.5,2.5,0,0,1-1.77-4.27l113.39-113.38a2.49,2.49,0,0,1,4.26,1.76v113.39A2.5,2.5,0,0,1,1360.62,1479Zm-107.35-5h104.85V1369.17Z"/><path class="cls-1" d="M1360.62,1592.4H1247.24a2.5,2.5,0,0,1-1.77-4.26l113.39-113.39a2.5,2.5,0,0,1,4.26,1.77V1589.9A2.49,2.49,0,0,1,1360.62,1592.4Zm-107.34-5h104.84V1482.55Z"/><path class="cls-1" d="M1474,1819.17H1360.63a2.5,2.5,0,0,1-2.5-2.5V1703.29a2.5,2.5,0,0,1,4.27-1.77l113.38,113.38a2.5,2.5,0,0,1-1.77,4.27Zm-110.88-5H1468l-104.85-104.85Z"/><path class="cls-1" d="M1474,1819.17a2.52,2.52,0,0,1-1.77-.73l-113.39-113.39a2.5,2.5,0,0,1,1.77-4.27H1474a2.49,2.49,0,0,1,2.5,2.5v113.39A2.49,2.49,0,0,1,1475,1819,2.44,2.44,0,0,1,1474,1819.17Zm-107.35-113.39,104.84,104.85V1705.78Z"/><path class="cls-1" d="M1474,1592.4H1360.63a2.5,2.5,0,0,1-2.5-2.5V1476.52a2.5,2.5,0,0,1,4.27-1.77l113.38,113.39a2.5,2.5,0,0,1-1.77,4.26Zm-110.88-5H1468l-104.85-104.85Z"/><path class="cls-1" d="M1247.24,1479a2.69,2.69,0,0,1-1-.19,2.51,2.51,0,0,1-1.54-2.31V1363.13a2.5,2.5,0,0,1,2.5-2.5h113.39a2.5,2.5,0,0,1,1.76,4.27L1249,1478.28A2.51,2.51,0,0,1,1247.24,1479Zm2.5-113.39v104.85l104.85-104.85Z"/><polygon class="cls-1" points="1589.9 1020.48 1589.9 1125.33 1694.75 1020.48 1589.9 1020.48"/><polygon class="cls-1" points="1480.05 1020.48 1584.9 1125.33 1584.9 1020.48 1480.05 1020.48"/><polygon class="cls-1" points="1476.52 1133.86 1476.52 1238.71 1581.36 1133.86 1476.52 1133.86"/><polygon class="cls-1" points="1706.82 1015.48 1811.67 1015.48 1811.67 910.63 1706.82 1015.48"/><polygon class="cls-1" points="1593.44 1133.86 1698.29 1238.71 1698.29 1133.86 1593.44 1133.86"/><polygon class="cls-1" points="1593.44 1128.86 1698.29 1128.86 1698.29 1024.01 1593.44 1128.86"/><polygon class="cls-1" points="1476.52 1128.86 1581.36 1128.86 1476.52 1024.01 1476.52 1128.86"/><polygon class="cls-1" points="1593.43 907.09 1698.28 1011.94 1698.28 907.09 1593.43 907.09"/><polygon class="cls-1" points="1589.9 902.09 1694.75 902.09 1589.9 797.24 1589.9 902.09"/><polygon class="cls-1" points="1476.52 793.7 1476.52 898.55 1581.36 793.7 1476.52 793.7"/><polygon class="cls-1" points="1476.52 907.08 1476.52 1011.93 1581.36 907.08 1476.52 907.08"/><polygon class="cls-1" points="1480.05 902.09 1584.9 902.09 1584.9 797.24 1480.05 902.09"/><polygon class="cls-1" points="1480.05 1015.47 1584.9 1015.47 1584.9 910.62 1480.05 1015.47"/><polygon class="cls-1" points="1589.9 1015.47 1694.75 1015.47 1589.9 910.62 1589.9 1015.47"/><polygon class="cls-1" points="1816.68 1020.48 1816.68 1125.33 1921.52 1020.48 1816.68 1020.48"/><polygon class="cls-1" points="1820.21 1133.86 1925.06 1238.71 1925.06 1133.86 1820.21 1133.86"/><polygon class="cls-1" points="1820.21 1128.86 1925.06 1128.86 1925.06 1024.01 1820.21 1128.86"/><polygon class="cls-1" points="1820.21 907.09 1925.06 1011.94 1925.06 907.09 1820.21 907.09"/><polygon class="cls-1" points="1820.21 902.09 1925.06 902.09 1925.06 797.24 1820.21 902.09"/><polygon class="cls-1" points="1816.68 793.7 1816.68 898.55 1921.52 793.7 1816.68 793.7"/><polygon class="cls-1" points="1816.68 1015.47 1921.52 1015.47 1816.68 910.62 1816.68 1015.47"/><polygon class="cls-1" points="1703.29 1128.86 1808.14 1128.86 1703.29 1024.01 1703.29 1128.86"/><polygon class="cls-1" points="1703.29 1133.86 1703.29 1238.71 1808.14 1133.86 1703.29 1133.86"/><polygon class="cls-1" points="1706.82 1020.48 1811.67 1125.33 1811.67 1020.48 1706.82 1020.48"/><polygon class="cls-1" points="1706.83 902.09 1811.67 902.09 1811.67 797.24 1706.83 902.09"/><polygon class="cls-1" points="1703.29 907.09 1703.29 1011.94 1808.14 907.09 1703.29 907.09"/><polygon class="cls-1" points="456.05 907.09 456.05 1011.94 560.89 907.09 456.05 907.09"/><polygon class="cls-1" points="456.05 1128.86 560.89 1128.86 456.05 1024.01 456.05 1128.86"/><polygon class="cls-1" points="346.19 907.09 451.04 1011.94 451.04 907.09 346.19 907.09"/><polygon class="cls-1" points="346.19 902.09 451.04 902.09 451.04 797.24 346.19 902.09"/><polygon class="cls-1" points="456.05 902.09 560.89 902.09 456.05 797.24 456.05 902.09"/><polygon class="cls-1" points="342.66 1020.48 342.66 1125.33 447.51 1020.48 342.66 1020.48"/><polygon class="cls-1" points="342.66 1015.48 447.51 1015.48 342.66 910.63 342.66 1015.48"/><polygon class="cls-1" points="232.81 1015.48 337.66 1015.48 337.66 910.63 232.81 1015.48"/><polygon class="cls-1" points="232.81 1020.47 337.66 1125.32 337.66 1020.47 232.81 1020.47"/><polygon class="cls-1" points="346.2 1133.86 451.04 1238.71 451.04 1133.86 346.2 1133.86"/><polygon class="cls-1" points="346.2 1128.86 451.04 1128.86 451.04 1024.01 346.2 1128.86"/><polygon class="cls-1" points="456.05 1133.86 456.05 1238.71 560.89 1133.86 456.05 1133.86"/><polygon class="cls-1" points="342.66 1242.24 447.51 1242.24 342.66 1137.39 342.66 1242.24"/><polygon class="cls-1" points="232.81 1242.24 337.66 1242.24 337.66 1137.39 232.81 1242.24"/><polygon class="cls-1" points="229.28 1133.86 229.27 1238.71 334.12 1133.86 229.28 1133.86"/><polygon class="cls-1" points="229.28 1128.86 334.13 1128.86 229.28 1024.01 229.28 1128.86"/><polygon class="cls-1" points="229.27 907.09 229.27 1011.94 334.12 907.09 229.27 907.09"/><polygon class="cls-1" points="229.27 902.09 334.12 902.09 229.27 797.24 229.27 902.09"/><polygon class="cls-1" points="342.66 793.71 342.66 898.55 447.51 793.71 342.66 793.71"/><polygon class="cls-1" points="232.81 793.71 337.66 898.55 337.66 793.71 232.81 793.71"/><polygon class="cls-1" points="796.2 1020.48 796.2 1125.33 901.05 1020.48 796.2 1020.48"/><polygon class="cls-1" points="686.35 1020.48 791.2 1125.33 791.2 1020.48 686.35 1020.48"/><polygon class="cls-1" points="686.35 1133.86 791.2 1238.71 791.2 1133.86 686.35 1133.86"/><polygon class="cls-1" points="682.82 1242.24 787.66 1242.24 682.82 1137.4 682.82 1242.24"/><polygon class="cls-1" points="682.82 1128.86 787.66 1128.86 682.82 1024.01 682.82 1128.86"/><polygon class="cls-1" points="796.2 793.7 796.2 898.55 901.05 793.7 796.2 793.7"/><polygon class="cls-1" points="799.74 902.09 904.59 902.09 904.59 797.24 799.74 902.09"/><polygon class="cls-1" points="682.82 907.08 682.82 1011.93 787.66 907.08 682.82 907.08"/><polygon class="cls-1" points="686.35 902.09 791.2 902.09 791.2 797.24 686.35 902.09"/><polygon class="cls-1" points="686.35 1015.47 791.2 1015.47 791.2 910.63 686.35 1015.47"/><polygon class="cls-1" points="796.2 1242.24 901.05 1242.24 796.2 1137.39 796.2 1242.24"/><polygon class="cls-1" points="799.74 1133.86 904.59 1238.71 904.59 1133.86 799.74 1133.86"/><polygon class="cls-1" points="796.2 1015.47 901.05 1015.47 796.2 910.63 796.2 1015.47"/><polygon class="cls-1" points="682.82 793.7 682.82 898.55 787.66 793.7 682.82 793.7"/><polygon class="cls-1" points="1816.67 453.55 1816.67 558.39 1921.52 453.55 1816.67 453.55"/><polygon class="cls-1" points="1593.43 453.55 1698.29 558.39 1698.29 453.55 1593.43 453.55"/><polygon class="cls-1" points="1593.43 566.93 1698.28 671.78 1698.28 566.93 1593.43 566.93"/><polygon class="cls-1" points="1589.9 675.31 1694.75 675.31 1589.9 570.47 1589.9 675.31"/><polygon class="cls-1" points="1589.9 561.93 1694.75 561.93 1589.9 457.08 1589.9 561.93"/><polygon class="cls-1" points="1816.67 226.77 1816.67 331.62 1921.52 226.77 1816.67 226.77"/><polygon class="cls-1" points="1589.9 340.15 1589.9 445 1694.75 340.15 1589.9 340.15"/><polygon class="cls-1" points="1593.43 335.16 1698.28 335.16 1698.28 230.31 1593.43 335.16"/><polygon class="cls-1" points="1593.43 448.54 1698.28 448.54 1698.28 343.69 1593.43 448.54"/><polygon class="cls-1" points="1816.67 675.31 1921.52 675.31 1816.67 570.46 1816.67 675.31"/><polygon class="cls-1" points="1816.67 448.54 1921.52 448.54 1816.67 343.69 1816.67 448.54"/><polygon class="cls-1" points="1589.9 226.77 1589.9 331.62 1694.75 226.77 1589.9 226.77"/><polygon class="cls-1" points="1706.82 561.93 1811.67 561.93 1811.67 457.08 1706.82 561.93"/><polygon class="cls-1" points="1706.82 566.93 1811.67 671.78 1811.67 566.93 1706.82 566.93"/><polygon class="cls-1" points="1703.29 675.31 1808.14 675.31 1703.29 570.47 1703.29 675.31"/><polygon class="cls-1" points="1703.29 453.54 1703.29 558.39 1808.14 453.54 1703.29 453.54"/><polygon class="cls-1" points="1703.29 448.54 1808.14 448.54 1703.29 343.69 1703.29 448.54"/><polygon class="cls-1" points="1706.82 335.16 1811.67 335.16 1811.67 230.31 1706.82 335.16"/><polygon class="cls-1" points="1706.83 340.16 1811.67 445.01 1811.67 340.16 1706.83 340.16"/><polygon class="cls-1" points="1703.29 226.77 1703.29 331.62 1808.14 226.77 1703.29 226.77"/><polygon class="cls-1" points="346.19 453.54 451.04 558.39 451.04 453.54 346.19 453.54"/><polygon class="cls-1" points="232.81 453.55 337.65 558.39 337.65 453.55 232.81 453.55"/><polygon class="cls-1" points="232.81 566.93 337.65 671.78 337.65 566.93 232.81 566.93"/><polygon class="cls-1" points="342.66 566.93 342.66 671.78 447.51 566.93 342.66 566.93"/><polygon class="cls-1" points="346.19 675.31 451.04 675.31 451.04 570.47 346.19 675.31"/><polygon class="cls-1" points="342.66 561.93 447.51 561.93 342.66 457.08 342.66 561.93"/><polygon class="cls-1" points="229.27 561.93 334.12 561.93 229.27 457.08 229.27 561.93"/><polygon class="cls-1" points="342.66 448.54 447.51 448.54 342.66 343.69 342.66 448.54"/><polygon class="cls-1" points="346.19 226.77 451.04 331.62 451.04 226.77 346.19 226.77"/><polygon class="cls-1" points="342.66 335.15 447.51 335.15 342.66 230.31 342.66 335.15"/><polygon class="cls-1" points="229.27 340.15 229.27 445 334.12 340.15 229.27 340.15"/><polygon class="cls-1" points="232.81 335.16 337.65 335.16 337.65 230.31 232.81 335.16"/><polygon class="cls-1" points="232.81 448.54 337.65 448.54 337.65 343.69 232.81 448.54"/><polygon class="cls-1" points="346.19 340.16 451.04 445.01 451.04 340.16 346.19 340.16"/><polygon class="cls-1" points="456.05 561.93 560.89 561.93 456.05 457.08 456.05 561.93"/><polygon class="cls-1" points="456.05 566.93 456.05 671.78 560.89 566.93 456.05 566.93"/><polygon class="cls-1" points="456.05 335.16 560.89 335.16 456.05 230.31 456.05 335.16"/><polygon class="cls-1" points="456.05 340.16 456.05 445.01 560.89 340.16 456.05 340.16"/><polygon class="cls-1" points="796.2 453.55 796.2 558.39 901.05 453.55 796.2 453.55"/><polygon class="cls-1" points="686.35 453.55 791.2 558.39 791.2 453.55 686.35 453.55"/><polygon class="cls-1" points="686.35 566.93 791.2 671.78 791.2 566.93 686.35 566.93"/><polygon class="cls-1" points="796.2 675.31 901.05 675.31 796.2 570.46 796.2 675.31"/><polygon class="cls-1" points="799.74 566.93 904.59 671.78 904.59 566.93 799.74 566.93"/><polygon class="cls-1" points="799.74 561.93 904.59 561.93 904.59 457.08 799.74 561.93"/><polygon class="cls-1" points="682.81 561.93 787.66 561.93 682.81 457.08 682.81 561.93"/><polygon class="cls-1" points="799.73 340.16 904.58 445.01 904.58 340.16 799.73 340.16"/><polygon class="cls-1" points="799.73 335.16 904.58 335.16 904.58 230.31 799.73 335.16"/><polygon class="cls-1" points="796.2 226.77 796.2 331.62 901.05 226.77 796.2 226.77"/><polygon class="cls-1" points="682.82 340.15 682.82 445 787.66 340.15 682.82 340.15"/><polygon class="cls-1" points="686.35 335.16 791.2 335.16 791.2 230.31 686.35 335.16"/><polygon class="cls-1" points="686.35 448.54 791.2 448.54 791.2 343.69 686.35 448.54"/><polygon class="cls-1" points="913.12 453.55 1017.97 558.39 1017.97 453.55 913.12 453.55"/><polygon class="cls-1" points="913.12 448.54 1017.97 448.54 1017.97 343.69 913.12 448.54"/><polygon class="cls-1" points="796.2 448.54 901.05 448.54 796.2 343.69 796.2 448.54"/><polygon class="cls-1" points="909.59 561.93 1014.44 561.93 909.59 457.08 909.59 561.93"/><polygon class="cls-1" points="909.59 566.93 909.59 671.78 1014.44 566.93 909.59 566.93"/><polygon class="cls-1" points="909.59 335.16 1014.44 335.16 909.59 230.31 909.59 335.16"/><polygon class="cls-1" points="909.59 340.16 909.59 445.01 1014.44 340.16 909.59 340.16"/><polygon class="cls-1" points="1249.74 453.55 1249.74 558.39 1354.6 453.55 1249.74 453.55"/><polygon class="cls-1" points="1139.89 453.55 1244.74 558.39 1244.74 453.55 1139.89 453.55"/><polygon class="cls-1" points="1139.89 675.32 1244.74 675.32 1244.74 570.47 1139.89 675.32"/><polygon class="cls-1" points="1249.74 675.32 1354.6 675.32 1249.74 570.47 1249.74 675.32"/><polygon class="cls-1" points="1136.36 566.93 1136.36 671.78 1241.21 566.93 1136.36 566.93"/><polygon class="cls-1" points="1253.28 566.93 1358.13 671.78 1358.13 566.93 1253.28 566.93"/><polygon class="cls-1" points="1253.28 561.93 1358.13 561.93 1358.13 457.08 1253.28 561.93"/><polygon class="cls-1" points="1136.36 561.93 1241.21 561.93 1136.36 457.08 1136.36 561.93"/><polygon class="cls-1" points="1253.28 340.16 1358.13 445.01 1358.13 340.16 1253.28 340.16"/><polygon class="cls-1" points="1253.28 335.16 1358.13 335.16 1358.13 230.31 1253.28 335.16"/><polygon class="cls-1" points="1249.74 226.77 1249.74 331.62 1354.6 226.77 1249.74 226.77"/><polygon class="cls-1" points="1136.36 340.16 1136.36 445 1241.21 340.16 1136.36 340.16"/><polygon class="cls-1" points="1139.89 335.16 1244.74 335.16 1244.74 230.31 1139.89 335.16"/><polygon class="cls-1" points="1139.89 448.55 1244.74 448.55 1244.74 343.7 1139.89 448.55"/><polygon class="cls-1" points="1366.67 453.55 1471.52 558.39 1471.52 453.55 1366.67 453.55"/><polygon class="cls-1" points="1366.66 448.55 1471.52 448.55 1471.52 343.7 1366.66 448.55"/><polygon class="cls-1" points="1249.74 448.55 1354.59 448.55 1249.74 343.7 1249.74 448.55"/><polygon class="cls-1" points="1363.13 561.93 1467.98 561.93 1363.13 457.08 1363.13 561.93"/><polygon class="cls-1" points="1363.13 566.93 1363.13 671.78 1467.98 566.93 1363.13 566.93"/><polygon class="cls-1" points="1363.13 335.16 1467.98 335.16 1363.13 230.31 1363.13 335.16"/><polygon class="cls-1" points="1363.13 340.16 1363.13 445.01 1467.98 340.16 1363.13 340.16"/><polygon class="cls-1" points="1136.36 226.77 1136.36 331.62 1241.21 226.77 1136.36 226.77"/><polygon class="cls-1" points="1026.51 902.09 1131.36 902.09 1131.36 797.24 1026.51 902.09"/><polygon class="cls-1" points="1026.51 1015.65 1131.36 1015.65 1131.36 910.8 1026.51 1015.65"/><polygon class="cls-1" points="1022.97 907.27 1022.97 1012.12 1127.82 907.27 1022.97 907.27"/><polygon class="cls-1" points="1022.97 1134.04 1022.97 1238.89 1127.82 1134.04 1022.97 1134.04"/><polygon class="cls-1" points="1026.51 1020.65 1131.36 1125.5 1131.36 1020.65 1026.51 1020.65"/><polygon class="cls-1" points="1022.97 1129.04 1127.82 1129.04 1022.97 1024.19 1022.97 1129.04"/><polygon class="cls-1" points="1136.36 1129.04 1241.21 1129.04 1136.36 1024.19 1136.36 1129.04"/><polygon class="cls-1" points="1253.28 1015.65 1358.13 1015.65 1358.13 910.8 1253.28 1015.65"/><polygon class="cls-1" points="1249.74 907.27 1249.74 1012.12 1354.6 907.27 1249.74 907.27"/><polygon class="cls-1" points="1249.74 1129.04 1354.6 1129.04 1249.74 1024.19 1249.74 1129.04"/><polygon class="cls-1" points="1253.28 1020.65 1358.13 1125.5 1358.13 1020.65 1253.28 1020.65"/><polygon class="cls-1" points="1253.28 1134.04 1358.13 1238.89 1358.13 1134.04 1253.28 1134.04"/><polygon class="cls-1" points="1249.74 902.09 1354.6 902.09 1249.74 797.24 1249.74 902.09"/><polygon class="cls-1" points="1136.36 902.09 1241.21 902.09 1136.36 797.24 1136.36 902.09"/><polygon class="cls-1" points="1139.89 793.7 1244.74 898.55 1244.74 793.7 1139.89 793.7"/><polygon class="cls-1" points="1194.09 1074.85 1244.74 1125.5 1244.74 1024.19 1194.09 1074.85"/><polygon class="cls-1" points="1139.89 907.27 1244.74 1012.12 1244.74 907.27 1139.89 907.27"/><polygon class="cls-1" points="1136.36 910.8 1136.36 1012.12 1187.02 961.46 1136.36 910.8"/><rect class="cls-2" width="2154.33" height="2040.94"/></svg>