<svg id="Layer_1" data-name="Layer 1" xmlns="http://www.w3.org/2000/svg" viewBox="0 0 148.01 177.61"><defs><style>.cls-1{fill:#fff;}.cls-2{fill:none;}</style></defs><path class="cls-1" d="M115.09,58.37a.59.59,0,0,0,.13-.18v-.07a.47.47,0,0,0,0-.17.55.55,0,0,0,0-.18v-.06a.8.8,0,0,0-.13-.19s0,0,0,0L86.74,29.16h0a.55.55,0,0,0-.28-.15l-.08,0H57.81l-.08,0h0l-.06,0-.07,0-.06,0s0,0,0,0L29.16,57.5a.62.62,0,0,0-.15.29s0,.05,0,.08,0,.05,0,.08v56.69s0,0,0,.08,0,0,0,.08a.64.64,0,0,0,.15.28l28.35,28.35h0l0,0a.39.39,0,0,0,.11.06l0,0h0a.59.59,0,0,0,.23.05H86.29a.6.6,0,0,0,.24-.05.57.57,0,0,0,.13-.08l.08,0,28.34-28.35s0,0,0,0a.59.59,0,0,0,.13-.18v-.06a.82.82,0,0,0,0-.36v-.06a.8.8,0,0,0-.13-.19h0L87.18,86.29l27.9-27.9S115.08,58.38,115.09,58.37ZM57.32,59.46V85.67H31.11ZM31.11,86.92H57.32v26.21L44.22,100Zm27.46.88L84.79,114H58.57Zm0-28.34L84.79,85.67H58.57Zm0-28.35L84.78,57.32H58.57ZM30.23,84.78V58.57H56.44Zm0,3,14.69,14.7L56.44,114H30.23Zm28.34,53.67V115.26H84.79L81,119.05Zm.89-54.55H85.67v26.21Zm0-28.35H85.67V84.78ZM86.92,31.11l26.21,26.21H86.92ZM85.67,56.44,59.46,30.23H85.67ZM57.32,31.11V57.32H31.11Zm0,84.15v26.21L31.11,115.26Zm24.09,5.14,4.26-4.25v26.21H59.46Zm5.51,21.08V115.26h26.21Zm0-27.47V87.8L113.13,114Zm0-29.23V58.57h26.21ZM62.18,133.52a1.09,1.09,0,1,1-1.08-1.08A1.09,1.09,0,0,1,62.18,133.52Zm2.07-4.23a1.09,1.09,0,1,0,1.08,1.08A1.09,1.09,0,0,0,64.25,129.29Zm3.15-3.15a1.09,1.09,0,1,0,1.08,1.09A1.09,1.09,0,0,0,67.4,126.14ZM70.54,123a1.09,1.09,0,1,0,1.09,1.09A1.09,1.09,0,0,0,70.54,123Zm3.16-3.15a1.09,1.09,0,1,0,1.08,1.09A1.09,1.09,0,0,0,73.7,119.84Zm3.14-3.14a1.08,1.08,0,1,0,1.09,1.08A1.08,1.08,0,0,0,76.84,116.7ZM61.1,126.15a1.09,1.09,0,1,0,1.08,1.08A1.08,1.08,0,0,0,61.1,126.15ZM64.25,123a1.08,1.08,0,1,0,1.08,1.08A1.08,1.08,0,0,0,64.25,123Zm3.15-3.15a1.09,1.09,0,1,0,1.08,1.08A1.08,1.08,0,0,0,67.4,119.85Zm3.14-3.15a1.09,1.09,0,1,0,1.09,1.08A1.08,1.08,0,0,0,70.54,116.7Zm-9.44,3.15a1.08,1.08,0,1,0,1.08,1.08A1.08,1.08,0,0,0,61.1,119.85Zm3.15-3.15a1.09,1.09,0,1,0,1.08,1.08A1.08,1.08,0,0,0,64.25,116.7Zm-25.19,0a1.09,1.09,0,1,0,1.08,1.09A1.08,1.08,0,0,0,39.06,116.7Zm3.15,3.15a1.09,1.09,0,1,0,0,2.17,1.09,1.09,0,0,0,0-2.17ZM45.36,123a1.09,1.09,0,1,0,1.08,1.09A1.09,1.09,0,0,0,45.36,123Zm3.15,3.15a1.09,1.09,0,1,0,1.08,1.09A1.09,1.09,0,0,0,48.51,126.15Zm3.15,3.15a1.09,1.09,0,1,0,1.08,1.09A1.09,1.09,0,0,0,51.66,129.3Zm3.15,3.15a1.09,1.09,0,1,0,1.08,1.09A1.08,1.08,0,0,0,54.81,132.45Zm-9.46-13.58a1.09,1.09,0,1,0-1.08-1.08A1.09,1.09,0,0,0,45.35,118.87ZM48.5,122a1.09,1.09,0,1,0-1.08-1.08A1.08,1.08,0,0,0,48.5,122Zm3.15,3.15a1.09,1.09,0,1,0-1.08-1.08A1.09,1.09,0,0,0,51.65,125.17Zm3.15,3.15a1.09,1.09,0,1,0-1.08-1.08A1.09,1.09,0,0,0,54.8,128.32Zm-3.15-9.45a1.09,1.09,0,1,0-1.08-1.08A1.09,1.09,0,0,0,51.65,118.87ZM54.8,122a1.09,1.09,0,1,0-1.08-1.08A1.08,1.08,0,0,0,54.8,122ZM39.06,88.36a1.09,1.09,0,1,0,1.08,1.08A1.08,1.08,0,0,0,39.06,88.36Zm3.15,3.15a1.08,1.08,0,1,0,1.08,1.08A1.08,1.08,0,0,0,42.21,91.51Zm3.15,3.15a1.09,1.09,0,1,0,1.08,1.08A1.08,1.08,0,0,0,45.36,94.66Zm3.15,3.15a1.08,1.08,0,1,0,1.08,1.08A1.08,1.08,0,0,0,48.51,97.81ZM51.66,101A1.08,1.08,0,1,0,52.74,102,1.08,1.08,0,0,0,51.66,101Zm3.15,3.15a1.08,1.08,0,1,0,1.08,1.08A1.08,1.08,0,0,0,54.81,104.11ZM45.35,90.53a1.09,1.09,0,1,0-1.08-1.09A1.09,1.09,0,0,0,45.35,90.53Zm3.15,3.14a1.08,1.08,0,1,0-1.08-1.08A1.08,1.08,0,0,0,48.5,93.67Zm3.15,3.16a1.09,1.09,0,1,0-1.08-1.09A1.09,1.09,0,0,0,51.65,96.83ZM54.8,100a1.08,1.08,0,1,0-1.08-1.08A1.08,1.08,0,0,0,54.8,100Zm-3.15-9.44a1.09,1.09,0,1,0-1.08-1.09A1.09,1.09,0,0,0,51.65,90.53Zm3.15,3.14a1.08,1.08,0,1,0-1.08-1.08A1.08,1.08,0,0,0,54.8,93.67Zm0-25.18a1.09,1.09,0,1,0-1.09-1.08A1.09,1.09,0,0,0,54.8,68.49Zm-3.15,1a1.09,1.09,0,1,0,1.08,1.08A1.08,1.08,0,0,0,51.65,69.47ZM48.5,72.62a1.09,1.09,0,1,0,1.08,1.08A1.09,1.09,0,0,0,48.5,72.62Zm-3.15,3.15a1.09,1.09,0,1,0,1.08,1.08A1.08,1.08,0,0,0,45.35,75.77ZM42.2,78.92A1.09,1.09,0,1,0,43.28,80,1.08,1.08,0,0,0,42.2,78.92Zm-3.15,3.15a1.09,1.09,0,1,0,1.08,1.08A1.08,1.08,0,0,0,39.05,82.07ZM54.8,72.62a1.08,1.08,0,1,0,1.08,1.08A1.08,1.08,0,0,0,54.8,72.62Zm-3.15,3.14a1.09,1.09,0,1,0,1.08,1.09A1.08,1.08,0,0,0,51.65,75.76ZM48.5,78.91a1.09,1.09,0,1,0,0,2.17,1.09,1.09,0,0,0,0-2.17Zm-3.15,3.15a1.09,1.09,0,1,0,1.08,1.09A1.08,1.08,0,0,0,45.35,82.06Zm9.45-3.15A1.09,1.09,0,1,0,55.88,80,1.09,1.09,0,0,0,54.8,78.91Zm-3.15,3.15a1.09,1.09,0,1,0,0,2.17,1.09,1.09,0,0,0,0-2.17Zm25.18,0a1.09,1.09,0,1,0,1.09,1.08A1.09,1.09,0,0,0,76.83,82.06Zm-3.15-3.15A1.09,1.09,0,1,0,74.77,80,1.09,1.09,0,0,0,73.68,78.91Zm-3.15-1a1.09,1.09,0,1,0-1.08-1.09A1.09,1.09,0,0,0,70.53,77.93Zm-3.14-3.15a1.09,1.09,0,1,0-1.09-1.09A1.09,1.09,0,0,0,67.39,74.78Zm-3.15-3.15a1.09,1.09,0,1,0-1.09-1.08A1.09,1.09,0,0,0,64.24,71.63Zm-3.15-3.15A1.09,1.09,0,1,0,60,67.39,1.08,1.08,0,0,0,61.09,68.48Zm9.45,13.58a1.09,1.09,0,1,0,1.09,1.08A1.08,1.08,0,0,0,70.54,82.06Zm-3.15-3.15A1.09,1.09,0,1,0,68.47,80,1.08,1.08,0,0,0,67.39,78.91Zm-3.15-3.15a1.09,1.09,0,1,0,1.08,1.08A1.08,1.08,0,0,0,64.24,75.76Zm-3.15-3.15a1.09,1.09,0,1,0,1.09,1.08A1.08,1.08,0,0,0,61.09,72.61Zm3.15,9.45a1.09,1.09,0,1,0,1.08,1.08A1.08,1.08,0,0,0,64.24,82.06Zm-3.15-3.15A1.09,1.09,0,1,0,62.18,80,1.08,1.08,0,0,0,61.09,78.91ZM76.83,110.4a1.09,1.09,0,1,0,1.09,1.09A1.09,1.09,0,0,0,76.83,110.4Zm-3.15-3.14a1.08,1.08,0,1,0,1.09,1.08A1.08,1.08,0,0,0,73.68,107.26Zm-3.15-1a1.08,1.08,0,1,0-1.08-1.08A1.08,1.08,0,0,0,70.53,106.27Zm-3.14-3.15A1.08,1.08,0,1,0,66.3,102,1.08,1.08,0,0,0,67.39,103.12ZM64.24,100a1.08,1.08,0,1,0-1.09-1.08A1.08,1.08,0,0,0,64.24,100Zm-3.15-3.14A1.09,1.09,0,1,0,60,95.74,1.08,1.08,0,0,0,61.09,96.83Zm9.45,13.57a1.09,1.09,0,1,0,1.09,1.09A1.08,1.08,0,0,0,70.54,110.4Zm-3.15-3.14a1.08,1.08,0,1,0,1.08,1.08A1.08,1.08,0,0,0,67.39,107.26Zm-3.15-3.15a1.08,1.08,0,1,0,1.08,1.08A1.08,1.08,0,0,0,64.24,104.11ZM61.09,101A1.08,1.08,0,1,0,62.18,102,1.08,1.08,0,0,0,61.09,101Zm3.15,9.44a1.09,1.09,0,1,0,1.08,1.09A1.08,1.08,0,0,0,64.24,110.4Zm-3.15-3.14a1.08,1.08,0,1,0,1.09,1.08A1.08,1.08,0,0,0,61.09,107.26Z"/><rect class="cls-2" width="148.01" height="177.61"/></svg>